<svg width="345" height="89" viewBox="0 0 345 89" fill="none" xmlns="http://www.w3.org/2000/svg">
<path fill-rule="evenodd" clip-rule="evenodd" d="M123.427 46.4861C120.52 46.4861 114.074 46.7385 114.074 50.8979C114.074 53.1682 116.475 54.24 118.561 54.24C122.29 54.24 125.765 52.2851 125.765 48.5037V46.4861H123.427ZM125.765 56.0677H125.638C123.553 59.344 119.762 60.667 115.906 60.667C110.157 60.667 104.975 57.3907 104.975 51.2125C104.975 40.6249 117.865 40.4366 125.765 40.4366C125.765 37.0958 122.985 34.9526 119.698 34.9526C116.602 34.9526 114.01 36.3406 111.989 38.6081L106.934 33.4407C110.409 30.1636 115.465 28.5254 120.456 28.5254C131.515 28.5254 134.485 34.1341 134.485 44.3443V59.9125H125.765V56.0677Z" fill="white"/>
<path fill-rule="evenodd" clip-rule="evenodd" d="M138.842 29.2815H147.942V33.4409H148.068C149.332 31.0455 152.429 28.5254 157.042 28.5254C166.647 28.5254 168.418 34.8277 168.418 43.0205V59.9128H158.937V44.9108C158.937 41.3831 158.875 36.8447 154.008 36.8447C149.079 36.8447 148.322 40.6893 148.322 44.6604V59.9128H138.842V29.2815Z" fill="white"/>
<path fill-rule="evenodd" clip-rule="evenodd" d="M189.069 64.8873C186.543 71.3789 185.088 75.0353 176.051 75.0353C173.652 75.0353 171.249 74.6574 168.975 73.8996L170.239 66.1481C171.692 66.7789 173.083 67.0947 174.663 67.0947C178.96 67.0947 179.655 65.2662 180.981 61.9258L181.677 60.1609L168.216 29.2793H178.453L186.352 49.5111H186.478L193.239 29.2793H202.971L189.069 64.8873Z" fill="white"/>
<path fill-rule="evenodd" clip-rule="evenodd" d="M204.333 29.2815H213.434V33.4409H213.56C214.825 31.0455 217.922 28.5254 222.532 28.5254C232.139 28.5254 233.908 34.8277 233.908 43.0205V59.9128H224.429V44.9108C224.429 41.3831 224.365 36.8447 219.5 36.8447C214.571 36.8447 213.814 40.6893 213.814 44.6604V59.9128H204.333V29.2815Z" fill="white"/>
<path fill-rule="evenodd" clip-rule="evenodd" d="M238.577 59.9106H248.057V29.2793H238.577V59.9106Z" fill="white"/>
<path fill-rule="evenodd" clip-rule="evenodd" d="M252.904 29.2815H262.006V33.4409H262.133C263.397 31.0455 266.492 28.5254 271.104 28.5254C280.709 28.5254 282.48 34.8277 282.48 43.0205V59.9128H273.002V44.9108C273.002 41.3831 272.937 36.8447 268.071 36.8447C263.143 36.8447 262.385 40.6893 262.385 44.6604V59.9128H252.904V29.2815Z" fill="white"/>
<path fill-rule="evenodd" clip-rule="evenodd" d="M307.709 41.1302C307.773 37.9793 305.307 35.3318 301.895 35.3318C297.725 35.3318 295.45 38.1675 295.196 41.1302H307.709ZM315.734 54.6179C312.703 58.4624 307.709 60.6671 302.779 60.6671C293.301 60.6671 285.718 54.3665 285.718 44.5962C285.718 34.8277 293.301 28.5254 302.779 28.5254C311.629 28.5254 317.187 34.8277 317.187 44.5962V47.5584H295.196C295.956 51.1505 298.673 53.4822 302.339 53.4822C305.434 53.4822 307.52 51.9075 309.1 49.7635L315.734 54.6179Z" fill="white"/>
<path fill-rule="evenodd" clip-rule="evenodd" d="M337.576 38.2935C336.185 36.5919 334.352 35.71 332.077 35.71C330.497 35.71 328.603 36.4036 328.603 38.2303C328.603 42.7676 344.59 38.9241 344.59 50.5833C344.59 58.399 337.004 60.6668 330.435 60.6668C326.137 60.6668 321.397 59.5955 318.367 56.5076L324.116 50.1425C325.885 52.2851 327.97 53.4818 330.813 53.4818C332.961 53.4818 335.111 52.9167 335.111 51.2771C335.111 46.3607 319.121 50.5213 319.121 38.8607C319.121 31.6763 325.568 28.5254 332.016 28.5254C336.058 28.5254 340.544 29.5334 343.389 32.5586L337.576 38.2935Z" fill="white"/>
<path fill-rule="evenodd" clip-rule="evenodd" d="M44.5 89C69.0767 89 89 69.0767 89 44.5C89 19.9233 69.0767 0 44.5 0C19.9233 0 0 19.9233 0 44.5C0 69.0767 19.9233 89 44.5 89Z" fill="#E4833E"/>
<path fill-rule="evenodd" clip-rule="evenodd" d="M36.5131 44.4974C36.5131 46.0729 36.7436 47.592 37.1688 49.0274H43.5014C42.814 47.666 42.4247 46.1281 42.4247 44.4974C42.4247 38.9389 46.9278 34.4349 52.4867 34.4349C58.0453 34.4349 62.5517 38.9389 62.5517 44.4974C62.5517 50.0571 58.0453 54.5624 52.4867 54.5624H33.4093C29.5956 54.5624 26.5052 51.4724 26.5052 47.6589C26.5052 43.8462 29.5956 40.7558 33.4093 40.7558C33.6581 37.422 35.7323 34.7314 35.7323 34.7314H33.4093C26.3005 34.7314 20.5386 40.4935 20.5386 47.6016C20.5386 54.7113 26.3005 60.4722 33.4093 60.4722H52.4867C55.4167 60.4722 58.1599 59.6813 60.5201 58.3044C65.2674 55.5352 68.4616 50.3904 68.4616 44.4974C68.4616 35.6762 61.3095 28.5234 52.4867 28.5234C43.6648 28.5234 36.5131 35.6762 36.5131 44.4974Z" fill="white"/>
</svg>
